<?xml version="1.0" encoding="utf-8"?>
<!-- Generator: Adobe Illustrator 25.1.0, SVG Export Plug-In . SVG Version: 6.00 Build 0)  -->
<svg version="1.1" id="Calque_1" xmlns="http://www.w3.org/2000/svg" xmlns:xlink="http://www.w3.org/1999/xlink" x="0px" y="0px"
	 viewBox="0 0 171.1 172.7" style="enable-background:new 0 0 171.1 172.7;" xml:space="preserve">
<style type="text/css">
	.st0{fill:#ECE7FD;}
	.st1{fill-rule:evenodd;clip-rule:evenodd;fill:#ECE7FD;}
</style>
<g>
	<path class="st1" d="M30.8,27C28.1,13,38.9,0,52.9,0c12.4,0,22.7,10.3,22.7,22.7v28.1c3.2,0,6.5-0.5,9.7-0.5s5.9,0,9.2,0.5V22.7
		C94.4,10.3,104.7,0,117.1,0c14,0,24.8,13,22.7,27l-5.9,32.9c21,9.2,37.2,25.4,37.2,45.3v12.4c0,16.7-10.8,30.8-26.4,39.9
		c-15.6,9.7-36.2,15.1-59.4,15.1s-43.7-5.4-59.4-15.1C10.8,148.4,0,134.4,0,117.6v-12.4c0-20,15.6-36.2,36.7-45.3L30.8,27z
		 M125.7,64.2l7-38.9c1.6-9.7-5.4-18.9-15.6-18.9c-8.6,0-15.6,7-15.6,15.6v35.6c-2.2-0.5-4.9-0.5-7-0.5c-3.2,0-5.9-0.5-9.2-0.5
		s-6.5,0-9.7,0.5c-2.2,0-4.9,0.5-7,0.5V22.7C68.5,14,61.5,7,52.9,7c-9.7,0-17.3,9.2-15.1,18.9l7,38.9C22.1,73.4,7,88.5,7,105.8v12.4
		c0,26.4,35.1,48,78.2,48s78.2-21.6,78.2-48v-12.4C164,88,148.9,72.8,125.7,64.2z"/>
	<path class="st0" d="M63.7,102c0,7-3.8,13-8.6,13c-4.9,0-8.6-5.9-8.6-13c0-7,3.8-13,8.6-13S63.7,95,63.7,102z"/>
	<path class="st0" d="M123.6,102c0,7-3.8,13-8.6,13s-8.6-5.9-8.6-13c0-7,3.8-13,8.6-13C119.8,89,123.6,95,123.6,102z"/>
</g>
</svg>
