<?xml version="1.0" encoding="utf-8"?>
<!-- Generator: Adobe Illustrator 25.1.0, SVG Export Plug-In . SVG Version: 6.00 Build 0)  -->
<svg version="1.1" id="Calque_1" xmlns="http://www.w3.org/2000/svg" xmlns:xlink="http://www.w3.org/1999/xlink" x="0px" y="0px"
	 viewBox="0 0 120.3 120.3" style="enable-background:new 0 0 120.3 120.3;" xml:space="preserve">
<style type="text/css">
	.st0{fill:#ECE7FD;}
	.st1{fill-rule:evenodd;clip-rule:evenodd;fill:#ECE7FD;}
</style>
<g>
	<path class="st0" d="M27.2,60.2L13.6,73.7L0,60.2l13.6-13.6L27.2,60.2z M60.2,27.2l23.3,23.3L97,36.9L60.2,0L23.3,36.9l13.6,13.6
		L60.2,27.2z M106.7,46.6L93.2,60.2l13.6,13.6l13.6-13.6L106.7,46.6z M60.2,93.2L36.9,69.9L23.3,83.4l36.9,36.9L97,83.4L83.4,69.9
		L60.2,93.2z M60.2,73.7l13.6-13.6L60.2,46.6L46.6,60.2L60.2,73.7z"/>
</g>
</svg>
