<?xml version="1.0" encoding="utf-8"?>
<!-- Generator: Adobe Illustrator 25.1.0, SVG Export Plug-In . SVG Version: 6.00 Build 0)  -->
<svg version="1.1" id="Calque_1" xmlns="http://www.w3.org/2000/svg" xmlns:xlink="http://www.w3.org/1999/xlink" x="0px" y="0px"
	 viewBox="0 0 85 85" style="enable-background:new 0 0 85 85;" xml:space="preserve">
<style type="text/css">
	.st0{fill:#ECE7FD;}
	.st1{fill-rule:evenodd;clip-rule:evenodd;fill:#ECE7FD;}
</style>
<g>
	<g>
		<path class="st0" d="M42.5,85C19.1,85,0,65.9,0,42.5S19.1,0,42.5,0S85,19.1,85,42.5S65.9,85,42.5,85z M42.5,5.1
			C21.9,5.1,5.1,21.9,5.1,42.5s16.8,37.4,37.4,37.4s37.4-16.8,37.4-37.4S63.2,5.1,42.5,5.1z"/>
	</g>
	<path class="st0" d="M17.4,44.5c4.7-2.6,9.9-4.7,14.8-6.9c8.4-3.5,16.8-7,25.3-10.2c1.7-0.6,4.6-1.1,4.9,1.4
		c-0.2,3.5-0.8,6.9-1.3,10.4c-1.1,7.6-2.5,15.1-3.8,22.7c-0.4,2.5-3.6,3.8-5.6,2.2c-4.9-3.3-9.7-6.5-14.5-9.9
		c-1.6-1.6-0.1-3.9,1.3-5c4-3.9,8.2-7.3,12-11.4c1-2.5-2-0.4-3,0.2C42.1,41.7,36.7,45.7,31,49c-2.9,1.6-6.4,0.2-9.3-0.7
		C19,47.2,15.1,46.1,17.4,44.5L17.4,44.5z"/>
</g>
</svg>
