<svg xmlns="http://www.w3.org/2000/svg" viewBox="0 0 295.35 49.81"><defs><style>.cls-1{fill:#4c1d95;}</style></defs><g id="Layer_2" data-name="Layer 2"><g id="Layer_1-2" data-name="Layer 1"><path class="cls-1" d="M73.59,40.38a6.11,6.11,0,0,1-6.11-6.11V17a6.11,6.11,0,0,1,6.11-6.12H90.92a5.92,5.92,0,0,1,4.29,1.79A5.77,5.77,0,0,1,97,16.9v2.79H90.59V17.24H73.87V34H90.59V29.53h-6.4V23.15H97V34.29a5.77,5.77,0,0,1-1.81,4.28,5.88,5.88,0,0,1-4.29,1.81Z"/><path class="cls-1" d="M101.36,40.38V22.56a5.7,5.7,0,0,1,1.76-4.19,5.81,5.81,0,0,1,4.22-1.78h13.11v6.28H107.6V40.38Z"/><path class="cls-1" d="M129.68,40.38a5.63,5.63,0,0,1-4.2-1.76,5.78,5.78,0,0,1-1.75-4.18v-9.1h17.83V22.89H123.73V16.62h18.11a6,6,0,0,1,5.95,5.94V40.38Zm1.67-6.27h10.21V30.84H130v3.28Z"/><path class="cls-1" d="M152.25,49.81V16.62H170.4a6,6,0,0,1,5.94,5.94V34.45a6,6,0,0,1-5.94,5.94H158.52v9.42Zm7.62-15.69h10.2V22.89H158.52V34.12Z"/><path class="cls-1" d="M179.46,40.38V8.83h6.26v7.78h11.89a6,6,0,0,1,5.94,5.94V40.38h-6.27V22.89H185.72V40.38Z"/><path class="cls-1" d="M207,40.38V10.85h6.35V34h17.48v6.38Z"/><path class="cls-1" d="M233,15.15V8.84h6.27v6.31Zm0,25.24V16.62h6.27V40.38Z"/><path class="cls-1" d="M244.1,40.38V16.62h18.14a6,6,0,0,1,5.95,5.94V40.38h-6.28V22.89H250.36V40.38Z"/><path class="cls-1" d="M289.08,49.81V40.38H277.15a6,6,0,0,1-5.93-5.94V22.55a6,6,0,0,1,5.93-5.94h18.2V49.8Zm-10.2-15.69h10.2V22.89H277.59V34.12Z"/><path class="cls-1" d="M46.64,25,32,16.53V24a4.27,4.27,0,0,0,2.15,3.73l8.24,4.76-5.15,8.92H26.78V8.51H37.22l4.56,7.9a5.45,5.45,0,0,0,7.44,2h0L52,16.83l-8.06-14A5.69,5.69,0,0,0,39,0H16.65A5.36,5.36,0,0,0,12,2.69L.74,22.22a5.35,5.35,0,0,0,0,5.44L11.93,47a5.59,5.59,0,0,0,4.86,2.81H39A5.74,5.74,0,0,0,44,47l8-13.85a4.38,4.38,0,0,0-1.57-6l0,0ZM18.29,41.36h0l-3.16-5.48L8.83,25l-.05-.09,9.51-16.4h0Z"/></g></g></svg>